<?xml version="1.0" encoding="UTF-8"?>
<!DOCTYPE svg PUBLIC "-//W3C//DTD SVG 1.1//EN" "http://www.w3.org/Graphics/SVG/1.1/DTD/svg11.dtd">
<!-- Creator: CorelDRAW -->
<svg xmlns="http://www.w3.org/2000/svg" xml:space="preserve" width="6.82666in" height="6.82666in" style="shape-rendering:geometricPrecision; text-rendering:geometricPrecision; image-rendering:optimizeQuality; fill-rule:evenodd; clip-rule:evenodd"
viewBox="0 0 6.82666 6.82666"
 xmlns:xlink="http://www.w3.org/1999/xlink">
 <defs>
  <style type="text/css">
   <![CDATA[
    .fil1 {fill:none}
    .fil0 {fill:#212121;fill-rule:nonzero}
   ]]>
  </style>
 </defs>
 <g id="Layer_x0020_1">
  <metadata id="CorelCorpID_0Corel-Layer"/>
  <path class="fil0" d="M4.05333 0.853327l1.76 0 0.106669 0 0 0.106669 0 2.34667 0 0.106669 -0.106669 0 -1.76 0 -0.106669 0 0 -0.106669 0 -2.34667 0 -0.106669 0.106669 0zm1.65333 0.213339l-1.54666 0 0 2.13333 1.54666 0 0 -2.13333z"/>
  <path class="fil0" d="M1.09074 3.50094l3.61284 0c0.0559606,0 0.106756,0.0228307 0.143508,0.0595827 0.0367638,0.0367638 0.0595866,0.0875787 0.0595866,0.143512l0 2.07001c0,0.0554528 -0.0228268,0.106102 -0.0595984,0.143079l3.93701e-006 3.93701e-006 -0.000208661 0.000208661 -0.000208661 0.000208661 -3.93701e-006 -3.93701e-006c-0.0369764,0.0367717 -0.087626,0.0595984 -0.143079,0.0595984l-3.61284 0c-0.0555512,0 -0.106303,-0.0228937 -0.143303,-0.0597953l-0.000208661 0.000208661c-0.036752,-0.036752 -0.0595827,-0.0875472 -0.0595827,-0.143508l0 -2.07001c0,-0.0556693 0.022815,-0.106335 0.0595748,-0.143102l0 -0.000417323c0.0367559,-0.0367559 0.0875591,-0.0595748 0.14352,-0.0595748zm3.60259 0.213339l-3.59235 0 0 2.04952 3.59235 0 0 -2.04952z"/>
  <path class="fil0" d="M2.2762 3.60761l0 -0.385717c0,-0.0647992 0.026437,-0.123638 0.0690197,-0.16622 0.0425748,-0.0425827 0.101413,-0.0690197 0.166217,-0.0690197l0.771429 0c0.0647953,0 0.123638,0.026437 0.166213,0.0690197 0.0425906,0.0425906 0.0690236,0.101433 0.0690236,0.16622l0 0.385717 -0.213339 0 0 -0.385717c0,-0.00590945 -0.0025,-0.0113661 -0.00651969,-0.0153858 -0.00401575,-0.00401575 -0.0094685,-0.00651575 -0.015378,-0.00651575l-0.771429 0c-0.00590945,0 -0.0113661,0.00249606 -0.0153819,0.00651575 -0.00401969,0.00401969 -0.00651575,0.00947244 -0.00651575,0.0153858l0 0.385717 -0.213339 0z"/>
  <polygon class="fil0" points="1.92381,3.50475 1.92381,4.73904 1.71047,4.73904 1.71047,3.50475 "/>
  <path class="fil0" d="M1.61144 4.6857l0.411429 0 0.0533346 0 0 0.0533346 0 0.514287 0 0.0533346 -0.0533346 0 -0.411429 0 -0.0533346 0 0 -0.0533346 0 -0.514287 0 -0.0533346 0.0533346 0zm0.358094 0.106669l-0.30476 0 0 0.407618 0.30476 0 0 -0.407618z"/>
  <polygon class="fil0" points="1.92381,5.25333 1.92381,5.97333 1.71047,5.97333 1.71047,5.25333 "/>
  <polygon class="fil0" points="4.08382,3.50475 4.08382,4.73904 3.87048,4.73904 3.87048,3.50475 "/>
  <path class="fil0" d="M3.77144 4.6857l0.411429 0 0.0533346 0 0 0.0533346 0 0.514287 0 0.0533346 -0.0533346 0 -0.411429 0 -0.0533346 0 0 -0.0533346 0 -0.514287 0 -0.0533346 0.0533346 0zm0.358094 0.106669l-0.30476 0 0 0.407618 0.30476 0 0 -0.407618z"/>
  <polygon class="fil0" points="4.08382,5.25333 4.08382,5.97333 3.87048,5.97333 3.87048,5.25333 "/>
  <polygon class="fil0" points="1.12,3.30666 1.12,1.49333 1.12,1.38666 1.22667,1.38666 2.98667,1.38666 3.09333,1.38666 3.09333,1.49333 3.09333,2.87624 2.88,2.87624 2.88,1.6 1.33333,1.6 1.33333,3.30666 "/>
  <polygon class="fil0" points="1.52,1.81333 2.69333,1.81333 2.69333,2.02667 1.52,2.02667 "/>
  <polygon class="fil0" points="1.52,2.23998 2.69333,2.23998 2.69333,2.45332 1.52,2.45332 "/>
  <polygon class="fil0" points="1.52,2.66664 2.69333,2.66664 2.69333,2.87998 1.52,2.87998 "/>
  <polygon class="fil0" points="4.34667,1.26451 5.52,1.26451 5.52,1.47785 4.34667,1.47785 "/>
  <polygon class="fil0" points="4.34667,1.77261 5.52,1.77261 5.52,1.98595 4.34667,1.98595 "/>
  <polygon class="fil0" points="4.34667,2.28071 5.52,2.28071 5.52,2.49405 4.34667,2.49405 "/>
  <polygon class="fil0" points="4.34667,2.78881 5.52,2.78881 5.52,3.00215 4.34667,3.00215 "/>
 </g>
 <rect class="fil1" width="6.82666" height="6.82666"/>
</svg>
